# xmcd
#
# Track frame offsets: 
#        150
#        12357
#        30450
#        43052
#        53895
#        68547
#        88787
#        102612
#        121792
#        133892
#        147010
#        160650
#        198315
#
# Disc length: 2836 seconds
#
# Revision: 6
# Processed by: cddbd v1.5.2PL0 Copyright (c) Steve Scherf et al.
# Submitted via: ExactAudioCopy v0.95b4
#
DISCID=ad0b120d
DTITLE=The Beatles - The Beatles (2)
DYEAR=1968
DGENRE=Rock
TTITLE0=Birthday
TTITLE1=Yer Blues
TTITLE2=Mother Nature's Son
TTITLE3=Everybody's Got Something to Hide Except Me and My Monkey
TTITLE4=Sexy Sadie
TTITLE5=Helter Skelter
TTITLE6=Long, Long, Long
TTITLE7=Revolution 1
TTITLE8=Honey Pie
TTITLE9=Savoy Truffle
TTITLE10=Cry Baby Cry
TTITLE11=Revolution 9
TTITLE12=Good Night
EXTD=YEAR: 1998
EXTT0=
EXTT1=
EXTT2=
EXTT3=
EXTT4=
EXTT5=
EXTT6=
EXTT7=
EXTT8=
EXTT9=
EXTT10=
EXTT11=
EXTT12=
PLAYORDER=
